<?xml version="1.0" encoding="utf-8"?>
<!-- Generator: Adobe Illustrator 27.5.0, SVG Export Plug-In . SVG Version: 6.00 Build 0)  -->
<svg version="1.1" xmlns="http://www.w3.org/2000/svg" xmlns:xlink="http://www.w3.org/1999/xlink" x="0px" y="0px"
	 viewBox="0 0 500 500" style="enable-background:new 0 0 500 500;" xml:space="preserve">
<g id="graphics">
	<g>
		<linearGradient id="SVGID_1_" gradientUnits="userSpaceOnUse" x1="248.3512" y1="222.5032" x2="257.2406" y2="272.8761">
			<stop  offset="0" style="stop-color:#85085B"/>
			<stop  offset="1" style="stop-color:#CF1111"/>
		</linearGradient>
		<path style="fill:url(#SVGID_1_);" d="M186.869,245.075c0.987,2.635,32.115,26.42,70.024,29.156
			c45.104,3.257,65.456-11.662,61.01-28.168c-4.612-17.107-20.751-18.936-44.818-14.945
			C257.939,233.628,220.859,242.718,186.869,245.075z"/>

			<linearGradient id="SVGID_00000005988242929964656770000018024900287067762862_" gradientUnits="userSpaceOnUse" x1="324.6084" y1="313.3456" x2="195.6994" y2="350.7708">
			<stop  offset="0" style="stop-color:#FFC800"/>
			<stop  offset="0.256" style="stop-color:#FE9104"/>
			<stop  offset="0.6126" style="stop-color:#FD4B09"/>
			<stop  offset="0.87" style="stop-color:#FC1F0D"/>
			<stop  offset="1" style="stop-color:#FC0E0E"/>
		</linearGradient>
		<path style="fill:url(#SVGID_00000005988242929964656770000018024900287067762862_);" d="M327.777,296.126
			c0,0-15.395,22.965-47.085,22.226c-35.897-0.841-42.546-10.62-54.315-0.99c-11.467,9.379-6.748,37.53,30.289,38.518
			C279.2,356.48,312.805,346.484,327.777,296.126z"/>

			<linearGradient id="SVGID_00000158740292822948102570000010079251767471996083_" gradientUnits="userSpaceOnUse" x1="106.0624" y1="148.653" x2="191.0031" y2="212.8524">
			<stop  offset="0.1758" style="stop-color:#FFC800"/>
			<stop  offset="1" style="stop-color:#FC0E0E"/>
		</linearGradient>
		<path style="fill:url(#SVGID_00000158740292822948102570000010079251767471996083_);" d="M128.27,158.677
			c-5.856,1.543-15.909,13.109-4.446,28.809c10.699,14.648,27.217,23.355,53.502,21.563c29.629-2.02,35.883-7.736,35.883-7.736
			s-34.469,7.653-53.007-18.756C145.06,160.982,137.457,156.255,128.27,158.677z"/>

			<linearGradient id="SVGID_00000068667745113746972180000003357553647511964074_" gradientUnits="userSpaceOnUse" x1="365.435" y1="182.5575" x2="393.9502" y2="182.5575">
			<stop  offset="0" style="stop-color:#85085B"/>
			<stop  offset="1" style="stop-color:#CF1111"/>
		</linearGradient>
		<path style="fill:url(#SVGID_00000068667745113746972180000003357553647511964074_);" d="M367.258,195.905
			c0,0-5.9-17.348,3.53-24.166c7.547-5.457,20.352-1.123,23.162,3.936C382.149,174.27,370.665,187.958,367.258,195.905z"/>

			<linearGradient id="SVGID_00000096031845685821024070000009080761438743734719_" gradientUnits="userSpaceOnUse" x1="199.7204" y1="360.0442" x2="286.2959" y2="360.0442">
			<stop  offset="0" style="stop-color:#85085B"/>
			<stop  offset="1" style="stop-color:#CF1111"/>
		</linearGradient>
		<path style="fill:url(#SVGID_00000096031845685821024070000009080761438743734719_);" d="M213.209,346.991
			c4.783,2.261,11.215,8.996,20.986,12.283c20.002,6.728,36.051,2.223,52.101-5.535c-17.284,13.991-39.294,27.187-70.617,16.954
			C190.74,362.546,199.104,340.319,213.209,346.991z"/>

			<linearGradient id="SVGID_00000062899741184533460350000011571596232688019903_" gradientUnits="userSpaceOnUse" x1="286.726" y1="472.6379" x2="277.8373" y2="360.0473">
			<stop  offset="0.3691" style="stop-color:#FFC800"/>
			<stop  offset="1" style="stop-color:#FC0E0E"/>
		</linearGradient>
		<path style="fill:url(#SVGID_00000062899741184533460350000011571596232688019903_);" d="M293.084,355.905
			c0,0-14.542,9.544-20.445,17.778c-10.744,14.979-9.527,29.833,0.075,35.249c9.383,5.288,18.775-4.945,15.363-14.483
			C282.347,378.437,283.146,367.307,293.084,355.905z"/>

			<linearGradient id="SVGID_00000065776017709582212030000012028295230727050643_" gradientUnits="userSpaceOnUse" x1="223.9761" y1="489.474" x2="265.4582" y2="348.237">
			<stop  offset="0.1758" style="stop-color:#FFC800"/>
			<stop  offset="1" style="stop-color:#FC0E0E"/>
		</linearGradient>
		<path style="fill:url(#SVGID_00000065776017709582212030000012028295230727050643_);" d="M271.064,368.687
			c0,0-21.974,9.006-36.713,43.32c-7.469,17.376-9.104,41.314,1.896,44.129c12.516,3.203,14.801-10.026,14.808-28.015
			C251.069,397.117,259.629,380.849,271.064,368.687z"/>

			<linearGradient id="SVGID_00000160898146712238244690000017891012790030508424_" gradientUnits="userSpaceOnUse" x1="165.0917" y1="413.6205" x2="248.0554" y2="369.1757">
			<stop  offset="0.1758" style="stop-color:#FFC800"/>
			<stop  offset="1" style="stop-color:#FC0E0E"/>
		</linearGradient>
		<path style="fill:url(#SVGID_00000160898146712238244690000017891012790030508424_);" d="M206.912,380.091
			c-7.664-4.785-15.984,9.238-3.677,14.975c20.479,9.539,43.561-12.785,46.965-16.644c3.482-3.957-9.398,2.897-17.62,4.127
			C220.65,384.329,215.711,385.59,206.912,380.091z"/>

			<linearGradient id="SVGID_00000110469370535058809240000016890691186652444849_" gradientUnits="userSpaceOnUse" x1="248.5994" y1="197.03" x2="378.461" y2="291.7208">
			<stop  offset="0.1758" style="stop-color:#FFC800"/>
			<stop  offset="1" style="stop-color:#FC0E0E"/>
		</linearGradient>
		<path style="fill:url(#SVGID_00000110469370535058809240000016890691186652444849_);" d="M326.119,240.769
			c25.175,37.328-2.352,82.492-24.024,108.371c0,0,0.002,0,0.002-0.002c10.935-6.431,19.098-15.845,29.633-23.123
			c55.309-44.105,55.95-78.84,38.409-110.877c-8.349-15.247-10.381-25.771-8.936-33.05c-0.154-4.177,1.905-8.63,4.637-12.673
			c-42.79,11.111-22.944,45.439-18.309,60.538c-36.051-62.718-108.743-21.745-161.419-15.161
			c-52.676,6.586-64.856-15.555-64.856-15.555c3.62,15.391,28.884,46.734,71.214,41.086
			C250.967,232.518,305.389,210.036,326.119,240.769z"/>

			<linearGradient id="SVGID_00000111156818804720034280000001109106398882872233_" gradientUnits="userSpaceOnUse" x1="289.928" y1="364.6082" x2="324.5674" y2="364.6082">
			<stop  offset="0" style="stop-color:#85085B"/>
			<stop  offset="1" style="stop-color:#CF1111"/>
		</linearGradient>
		<path style="fill:url(#SVGID_00000111156818804720034280000001109106398882872233_);" d="M295.557,361.975
			c-19.016,23.304,15.4,43.198,25.76,16.554c4.172-10.732-1.334-26.752,3.251-40.573
			C308.302,350.267,301.507,354.681,295.557,361.975z"/>

			<radialGradient id="SVGID_00000082370573010693752750000017510883951104135608_" cx="566.5217" cy="22.1073" r="10.5872" gradientTransform="matrix(-0.4526 0.8917 0.8917 0.4526 563.9099 -346.1715)" gradientUnits="userSpaceOnUse">
			<stop  offset="0" style="stop-color:#CF1111"/>
			<stop  offset="1" style="stop-color:#85085B"/>
		</radialGradient>
		<path style="fill:url(#SVGID_00000082370573010693752750000017510883951104135608_);" d="M325.742,179.293
			c3.564,1.808,7.925,0.386,9.737-3.181c1.808-3.567,0.383-7.926-3.181-9.736c-3.568-1.81-7.927-0.387-9.739,3.18
			C320.752,173.121,322.176,177.482,325.742,179.293z"/>

			<radialGradient id="SVGID_00000007403428053960224350000011674413123958639288_" cx="549.9514" cy="30.3201" r="7.517" gradientTransform="matrix(-0.4526 0.8917 0.8917 0.4526 563.9099 -346.1715)" gradientUnits="userSpaceOnUse">
			<stop  offset="0" style="stop-color:#CF1111"/>
			<stop  offset="1" style="stop-color:#85085B"/>
		</radialGradient>
		<path style="fill:url(#SVGID_00000007403428053960224350000011674413123958639288_);" d="M340.992,165.251
			c2.531,1.285,5.628,0.275,6.912-2.258c1.286-2.531,0.277-5.629-2.255-6.914c-2.534-1.286-5.633-0.275-6.917,2.259
			C337.446,160.87,338.458,163.968,340.992,165.251z"/>

			<radialGradient id="SVGID_00000132777308287670760600000008019501534671653045_" cx="105.8025" cy="199.8047" r="10.5853" gradientUnits="userSpaceOnUse">
			<stop  offset="0" style="stop-color:#CF1111"/>
			<stop  offset="1" style="stop-color:#85085B"/>
		</radialGradient>
		<path style="fill:url(#SVGID_00000132777308287670760600000008019501534671653045_);" d="M115.646,203.148
			c0,3.998-3.244,7.241-7.243,7.241s-7.243-3.243-7.243-7.241c0-4.002,3.244-7.242,7.243-7.242S115.646,199.145,115.646,203.148z"/>

			<radialGradient id="SVGID_00000062909627388533531320000007764676479712863405_" cx="105.8025" cy="143.5331" r="10.5859" gradientUnits="userSpaceOnUse">
			<stop  offset="0" style="stop-color:#CF1111"/>
			<stop  offset="1" style="stop-color:#85085B"/>
		</radialGradient>
		<path style="fill:url(#SVGID_00000062909627388533531320000007764676479712863405_);" d="M115.646,146.876
			c0,4-3.244,7.242-7.243,7.242s-7.243-3.242-7.243-7.242c0-4.002,3.244-7.243,7.243-7.243S115.646,142.874,115.646,146.876z"/>

			<radialGradient id="SVGID_00000005953733761417168040000008693331079698401416_" cx="97.8499" cy="170.7639" r="13.4789" gradientUnits="userSpaceOnUse">
			<stop  offset="0" style="stop-color:#CF1111"/>
			<stop  offset="1" style="stop-color:#85085B"/>
		</radialGradient>
		<path style="fill:url(#SVGID_00000005953733761417168040000008693331079698401416_);" d="M110.383,175.023
			c0,5.091-4.128,9.22-9.219,9.22c-5.096,0-9.225-4.129-9.225-9.22c0-5.095,4.129-9.226,9.225-9.226
			C106.255,165.798,110.383,169.929,110.383,175.023z"/>

			<radialGradient id="SVGID_00000109019825204445015680000014189081974917808267_" cx="116.7948" cy="220.0015" r="7.274" gradientUnits="userSpaceOnUse">
			<stop  offset="0" style="stop-color:#CF1111"/>
			<stop  offset="1" style="stop-color:#85085B"/>
		</radialGradient>
		<path style="fill:url(#SVGID_00000109019825204445015680000014189081974917808267_);" d="M123.558,222.299
			c0,2.749-2.228,4.977-4.976,4.977c-2.748,0-4.977-2.229-4.977-4.977c0-2.749,2.229-4.978,4.977-4.978
			C121.33,217.321,123.558,219.55,123.558,222.299z"/>

			<radialGradient id="SVGID_00000063600428152902841140000016341014479192814508_" cx="128.3587" cy="234.101" r="6.2664" gradientUnits="userSpaceOnUse">
			<stop  offset="0" style="stop-color:#CF1111"/>
			<stop  offset="1" style="stop-color:#85085B"/>
		</radialGradient>
		<path style="fill:url(#SVGID_00000063600428152902841140000016341014479192814508_);" d="M134.185,236.081
			c0,2.365-1.919,4.287-4.288,4.287c-2.367,0-4.285-1.922-4.285-4.287c0-2.367,1.918-4.289,4.285-4.289
			C132.266,231.792,134.185,233.714,134.185,236.081z"/>

			<radialGradient id="SVGID_00000078751284364603161790000009641159132701694369_" cx="143.8304" cy="244.3058" r="6.267" gradientUnits="userSpaceOnUse">
			<stop  offset="0" style="stop-color:#CF1111"/>
			<stop  offset="1" style="stop-color:#85085B"/>
		</radialGradient>
		<path style="fill:url(#SVGID_00000078751284364603161790000009641159132701694369_);" d="M149.658,246.284
			c0,2.369-1.92,4.288-4.287,4.288c-2.368,0-4.289-1.919-4.289-4.288c0-2.365,1.921-4.287,4.289-4.287
			C147.738,241.997,149.658,243.919,149.658,246.284z"/>

			<radialGradient id="SVGID_00000078032744512861254500000002713631867022291588_" cx="164.3571" cy="248.5934" r="6.2671" gradientUnits="userSpaceOnUse">
			<stop  offset="0" style="stop-color:#CF1111"/>
			<stop  offset="1" style="stop-color:#85085B"/>
		</radialGradient>
		<path style="fill:url(#SVGID_00000078032744512861254500000002713631867022291588_);" d="M170.184,250.572
			c0,2.37-1.921,4.289-4.288,4.289c-2.368,0-4.286-1.919-4.286-4.289c0-2.367,1.918-4.288,4.286-4.288
			C168.263,246.284,170.184,248.205,170.184,250.572z"/>

			<radialGradient id="SVGID_00000001639248865741462440000002626301113830500488_" cx="197.8881" cy="469.1998" r="14.2636" gradientTransform="matrix(0.9921 0.1258 -0.1258 0.9921 62.5362 -47.7516)" gradientUnits="userSpaceOnUse">
			<stop  offset="0" style="stop-color:#CF1111"/>
			<stop  offset="1" style="stop-color:#85085B"/>
		</radialGradient>
		<path style="fill:url(#SVGID_00000001639248865741462440000002626301113830500488_);" d="M212.43,448.773
			c-0.68,5.35-5.566,9.134-10.908,8.452c-5.351-0.674-9.136-5.563-8.459-10.907c0.679-5.345,5.564-9.136,10.912-8.454
			C209.317,438.543,213.105,443.424,212.43,448.773z"/>

			<radialGradient id="SVGID_00000006703930559869521720000005000468909730557056_" cx="205.6902" cy="446.4292" r="9.8027" gradientTransform="matrix(0.9921 0.1258 -0.1258 0.9921 62.5362 -47.7516)" gradientUnits="userSpaceOnUse">
			<stop  offset="0" style="stop-color:#CF1111"/>
			<stop  offset="1" style="stop-color:#85085B"/>
		</radialGradient>
		<path style="fill:url(#SVGID_00000006703930559869521720000005000468909730557056_);" d="M219.093,425.246
			c-0.468,3.675-3.825,6.277-7.497,5.81c-3.676-0.464-6.275-3.824-5.809-7.498c0.463-3.672,3.82-6.273,7.496-5.812
			C216.955,418.214,219.558,421.572,219.093,425.246z"/>

			<radialGradient id="SVGID_00000115476723400663231820000004729199017908962489_" cx="196.7616" cy="496.7523" r="9.8009" gradientTransform="matrix(0.9921 0.1258 -0.1258 0.9921 62.5362 -47.7516)" gradientUnits="userSpaceOnUse">
			<stop  offset="0" style="stop-color:#CF1111"/>
			<stop  offset="1" style="stop-color:#85085B"/>
		</radialGradient>
		<path style="fill:url(#SVGID_00000115476723400663231820000004729199017908962489_);" d="M203.902,474.045
			c-0.467,3.674-3.824,6.278-7.498,5.811c-3.675-0.463-6.275-3.823-5.805-7.497c0.461-3.672,3.818-6.278,7.495-5.811
			C201.768,467.015,204.367,470.375,203.902,474.045z"/>

			<radialGradient id="SVGID_00000109731289823312126440000010803141803256376465_" cx="216.1498" cy="428.606" r="8.4442" gradientTransform="matrix(0.9921 0.1258 -0.1258 0.9921 62.5362 -47.7516)" gradientUnits="userSpaceOnUse">
			<stop  offset="0" style="stop-color:#CF1111"/>
			<stop  offset="1" style="stop-color:#85085B"/>
		</radialGradient>
		<path style="fill:url(#SVGID_00000109731289823312126440000010803141803256376465_);" d="M230.516,408.294
			c-0.406,3.164-3.295,5.409-6.461,5.003c-3.165-0.397-5.406-3.29-5.005-6.455c0.4-3.166,3.293-5.405,6.458-5.007
			C228.676,402.236,230.916,405.13,230.516,408.294z"/>

			<radialGradient id="SVGID_00000000185263696314122320000003758269521722649236_" cx="538.6462" cy="43.2594" r="7.4183" gradientTransform="matrix(-0.4526 0.8917 0.8917 0.4526 563.9104 -346.172)" gradientUnits="userSpaceOnUse">
			<stop  offset="0" style="stop-color:#CF1111"/>
			<stop  offset="1" style="stop-color:#85085B"/>
		</radialGradient>
		<path style="fill:url(#SVGID_00000000185263696314122320000003758269521722649236_);" d="M357.659,160.929
			c2.5,1.268,5.556,0.271,6.824-2.229c1.27-2.5,0.272-5.553-2.228-6.822c-2.498-1.27-5.554-0.271-6.824,2.229
			C354.166,156.607,355.162,159.661,357.659,160.929z"/>
	</g>
</g>
</svg>
