<svg id="euz3BxePyh21" xmlns="http://www.w3.org/2000/svg" xmlns:xlink="http://www.w3.org/1999/xlink"
     viewBox="0 0 1920 1080" shape-rendering="geometricPrecision" text-rendering="geometricPrecision"
     project-id="e78b512ad7ee4bc1b218bce18cfa95df" export-id="0ae11b739d8847fc942c469a9fb060b5" cached="false">
  <defs>
    <linearGradient id="euz3BxePyh210-fill" x1="214.73704" y1="134.946169" x2="185.817989" y2="229.864123"
                    spreadMethod="pad" gradientUnits="userSpaceOnUse" gradientTransform="translate(0 0)">
      <stop id="euz3BxePyh210-fill-0" offset="0%" stop-color="#ff5c00"/>
      <stop id="euz3BxePyh210-fill-1" offset="100%" stop-color="#c30"/>
    </linearGradient>
  </defs>
  <g transform="matrix(-3.657578 0 0 3.744263 1691.672064-135.20721)">
    <g>
      <g>
        <path
          d="M50.7,237.2c36,15.6,76.9,15.6,112.9,0h-13.2L137,211.6c-3.6-6.9-10.3-10.9-18-10.9h-11.2-11.2c-7.8,0-14.4,4-18,10.9L65.2,237.2h-14.5Z"
          clip-rule="evenodd" fill-rule="evenodd"/>
        <path
          d="M255.1,237.2c36,15.6,76.9,15.6,112.9,0h-13.2l-13.4-25.6c-3.6-6.9-10.3-10.9-18-10.9h-11.2-11.2c-7.8,0-14.4,4-18,10.9l-13.4,25.6h-14.5v0Z"
          clip-rule="evenodd" fill-rule="evenodd"/>
      </g>
      <path
        d="M37.7,172.5h247c.1,0,.2,0,.3,0l72.3,6.6c1.7.2,3.1,1.2,3.9,2.7l5.3,9.8c.3.6.4,1.2.4,1.8c0,5.5,0,17.7,0,23.1h3.1c2.2.7,3.7,2.8,3.7,5.2v10c0,3-2.4,5.4-5.4,5.4h-13.5l-13.4-25.6c-3.6-6.9-10.3-10.9-18-10.9h-11.2-11.2c-7.8,0-14.4,4-18,10.9l-13.4,25.6h-119.2L137,211.5c-3.6-6.9-10.3-10.9-18-10.9h-11.2-11.2c-7.8,0-14.4,4-18,10.9L65.2,237.1l-37.5-2.3v-14.5c0-1.8,1.5-3.4,3.4-3.4h.7v-33.2c0-.3,0-.6.1-.9l1.4-6.9c.4-1.9,2.2-3.4,4.4-3.4v0Z"
        clip-rule="evenodd" fill="#ff5f00" fill-rule="evenodd"/>
      <g>
        <path d="M27.7,222.3v-1.9c0-1.8,1.5-3.4,3.4-3.4h.7h19.8c-11.5,0-18.9,3.4-23.9,5.3v0Z" clip-rule="evenodd"
              fill="#f66" fill-rule="evenodd"/>
        <path
          d="M37.7,172.5l250.8.2v0l68.8,6.4c1.7.2,3.1,1.2,3.9,2.7l5.3,9.8C325.4,184,213.9,181.1,31.9,183l1.4-6.9c.4-2.1,2.2-3.6,4.4-3.6v0Z"
          clip-rule="evenodd" fill="url(#euz3BxePyh210-fill)" fill-rule="evenodd"/>
        <path d="M369.9,216.6c2.2.7,3.7,2.8,3.7,5.2-5-1.9-12.1-5.3-23.5-5.2h19.8v0Z" clip-rule="evenodd" fill="#f66"
              fill-rule="evenodd"/>
      </g>
      <path
        d="M171.6,172.8l11-43.8c.3-1.2,1-2.2,2.3-2.2h59.5c.7,0,1.3.3,1.7.8l42.4,45.2c.8.9-2.4,4.7-5,4.7-30.2,0-60.5,0-90.7,0-3.1,0-15.7-1.8-19.2-2.3-1.2-.3-2.3-1.3-2-2.4v0Zm97.7-.7c5.8,0,5.6-4.8,3.6-7.2l-27.1-32c-.4-.5-1-.8-1.7-.8h-47.1c-2.5,0-4.6,2.1-4.6,4.6v33.1c0,1.3,1,2.3,2.3,2.3h74.6v0Z"
        fill="#d75000"/>
      <path
        d="M370.5,232.6c2.5,0,4.5,2,4.5,4.5s-2,4.5-4.5,4.5h-12.7c-1.7,0-3.4-.5-4.9-1.4s-2.7-2.1-3.5-3.7l-12-22.9c-1.4-2.7-3.4-4.8-5.8-6.2s-5.2-2.2-8.2-2.2h-22.4c-3,0-5.9.8-8.2,2.2-2.4,1.4-4.4,3.6-5.8,6.2l-12,22.9c-.8,1.6-2,2.9-3.5,3.7l-.5.2c-1.4.7-2.9,1.1-4.5,1.1h-113.1c-1.8,0-3.4-.5-4.9-1.4s-2.7-2.1-3.5-3.7l-12-22.9c-1.4-2.7-3.4-4.8-5.8-6.2s-5.2-2.2-8.2-2.2h-22.4c-3,0-5.9.8-8.2,2.2-2.4,1.4-4.4,3.6-5.8,6.2l-12,22.9c-.8,1.6-2.1,2.9-3.5,3.8l-.5.2c-1.4.8-3,1.1-4.7,1l-32.6-2.3c-2.5-.2-4.4-2.3-4.2-4.8s2.3-4.4,4.8-4.2l32.5,2.3.2-.2l12-22.9c2.2-4.2,5.3-7.5,9.1-9.8s8.2-3.5,12.9-3.5h22.3c4.7,0,9.1,1.2,12.9,3.5s6.9,5.6,9.1,9.8c2.4,4.5,9.7,20.2,12.2,23.1c0,0,.1,0,.3,0c10.2,0,113,.5,113.6-.2l12-22.9c2.2-4.2,5.3-7.5,9.1-9.8s8.2-3.5,12.9-3.5h22.3c4.7,0,9.1,1.2,12.9,3.5s6.9,5.6,9.1,9.8l12,22.9.1.2c0,0,.1.1.3.1l12.8.1v0Z"
        fill="#e6e6e6"/>
      <rect width="4.4" height="12.1" rx="0" ry="0" transform="translate(362.4 193.4)" clip-rule="evenodd" fill="#fc0"
            fill-rule="evenodd"/>
      <rect width="6.9" height="18.6" rx="0" ry="0" transform="translate(31.7 193.4)" clip-rule="evenodd" fill="#900"
            fill-rule="evenodd"/>
      <g>
        <path
          d="M269.3,172.1c5.8,0,5.6-4.8,3.6-7.2l-27.1-32c-.4-.5-1-.8-1.7-.8h-47.1c-2.5,0-4.5,2-4.5,4.5v33.2c0,1.3,1,2.3,2.3,2.3h74.5v0Z"
          fill="#95c7c6"/>
        <path
          d="M197,132.1c25.4,0,40.8,0,46.1,0c1.4,0,2.6.5,3.4,1.6c3.5,4.2,14.1,16.6,31.6,37.3.6.8,1,1.6,1.1,2.6c1.3,19.5-3.3,34.6-13.9,49.1-.9,1.2-2.2,1.9-3.6,1.9-20.1,0-41.7,0-64.6,0-2.5,0-4.5-2-4.5-4.5c0-37.6,0-64.4,0-83.4-.1-2.6,2-4.6,4.4-4.6Z"
          fill="none" stroke="#c22213" stroke-width="1.0034" stroke-miterlimit="24.7341"/>
        <g>
          <polygon points="278.1,171 279,172.7 262.6,172.7 266.8,157.6 275.3,167.6" clip-rule="evenodd" fill="#636b6e"
                   fill-rule="evenodd"/>
          <path
            d="M264.1,175h-2.3c-.2,0-.3-.1-.5-.2-.1-.1-.2-.3-.2-.5l1.6-19c0-.2.1-.4.3-.5s.3-.1.5-.1l2.1.5c2.4.6,4.5,2,4.5,4.5c0,4.4-2,15.3-6,15.3v0Z"
            clip-rule="evenodd" fill="#4d5457" fill-rule="evenodd"/>
        </g>
      </g>
    </g>
    <g>
      <circle r="32.6" transform="translate(107.7 240.6)" clip-rule="evenodd" fill="#1a1a1a" fill-rule="evenodd"/>
      <path
        d="M107.7,216.5c13.3,0,24.1,10.8,24.1,24.1s-10.8,24.1-24.1,24.1-24.1-10.8-24.1-24.1s10.8-24.1,24.1-24.1Zm1.9,5.2h-3.7c-.2,0-.4.1-.6.3-.1.2-.2.4-.1.6l1.8,8.1c.1.3.4.6.7.6s.6-.2.7-.6l1.8-8.1c.1-.2,0-.4-.1-.6s-.3-.3-.5-.3Zm-9.7,1.6l-3.2,1.9c-.2.1-.3.3-.3.5s0,.4.2.6l5.6,6.1c.2.2.6.3.9.1s.4-.5.3-.8l-2.4-7.9c-.1-.2-.2-.4-.4-.5-.3-.1-.5-.1-.7,0v0Zm-7.6,6.3l-1.8,3.2c-.1.2-.1.4,0,.6s.2.4.5.4l7.9,2.4c.3.1.7,0,.8-.3.2-.3.1-.7-.1-.9l-6.1-5.6c-.2-.2-.4-.2-.6-.2-.3,0-.5.2-.6.4v0Zm-3.5,9.2v3.7c0,.2.1.4.3.6.2.1.4.2.6.1l8.1-1.8c.3-.1.6-.4.6-.7s-.2-.6-.6-.7l-8.1-1.9c-.2,0-.4,0-.6.1s-.3.3-.3.6v0Zm1.6,9.7l1.9,3.2c.1.2.3.3.5.3s.4,0,.6-.2l6.1-5.6c.2-.2.3-.6.1-.9s-.5-.4-.8-.3l-7.9,2.4c-.2.1-.4.2-.5.4-.1.3-.1.5,0,.7v0Zm6.3,7.6l3.2,1.8c.2.1.4.1.6,0s.4-.2.4-.5l2.4-7.9c.1-.3,0-.7-.3-.8-.3-.2-.7-.1-.9.1l-5.6,6.1c-.2.2-.2.4-.2.6.1.3.2.5.4.6Zm9.2,3.4h3.7c.2,0,.4-.1.6-.3.1-.2.2-.4.1-.6l-1.8-8.1c-.1-.3-.4-.6-.7-.6s-.6.2-.7.6l-1.9,8.1c0,.2,0,.4.1.6.2.2.4.3.6.3v0Zm9.7-1.6l3.2-1.9c.2-.1.3-.3.3-.5s0-.4-.2-.6l-5.6-6.1c-.2-.2-.6-.3-.9-.1s-.4.5-.3.8l2.4,7.9c.1.2.2.4.4.5.3.2.5.1.7,0v0Zm7.6-6.2l1.8-3.2c.1-.2.1-.4,0-.6s-.2-.4-.5-.4l-7.9-2.4c-.3-.1-.7,0-.8.3-.2.3-.1.7.1.9l6.1,5.6c.2.2.4.2.6.2.3-.1.5-.2.6-.4v0Zm3.5-9.2v-3.7c0-.2-.1-.4-.3-.6-.2-.1-.4-.2-.6-.1l-8.1,1.8c-.3.1-.6.4-.6.7s.2.6.6.7l8.1,1.9c.2,0,.4,0,.6-.1.2-.2.3-.4.3-.6Zm-1.6-9.7l-1.9-3.2c-.1-.2-.3-.3-.5-.3s-.4,0-.6.2L116,235c-.2.2-.3.6-.1.9s.5.4.8.3l7.9-2.4c.2-.1.4-.2.5-.4s.1-.5,0-.6v0Zm-6.3-7.6l-3.2-1.8c-.2-.1-.4-.1-.6,0s-.4.2-.4.5l-2.4,7.9c-.1.3,0,.7.3.8.3.2.7.1.9-.1l5.6-6.1c.2-.2.2-.4.2-.6-.1-.4-.2-.5-.4-.6Z"
        clip-rule="evenodd" fill="#b3b3b3" fill-rule="evenodd"/>
    </g>
    <g>
      <circle r="32.6" transform="translate(312.2 240.6)" clip-rule="evenodd" fill="#1a1a1a" fill-rule="evenodd"/>
      <path
        d="M312.2,216.5c13.3,0,24.1,10.8,24.1,24.1s-10.8,24.1-24.1,24.1-24.1-10.8-24.1-24.1s10.8-24.1,24.1-24.1Zm1.8,5.2h-3.7c-.2,0-.4.1-.6.3-.1.2-.2.4-.1.6l1.8,8.1c.1.3.4.6.7.6s.6-.2.7-.6l1.8-8.1c.1-.2,0-.4-.1-.6s-.3-.3-.5-.3v0Zm-9.7,1.6l-3.2,1.9c-.2.1-.3.3-.3.5s0,.4.2.6l5.6,6.1c.2.2.6.3.9.1s.4-.5.3-.8l-2.4-7.9c-.1-.2-.2-.4-.4-.5-.3-.1-.5-.1-.7,0v0Zm-7.6,6.3l-1.8,3.2c-.1.2-.1.4,0,.6s.2.4.5.4l7.9,2.4c.3.1.7,0,.8-.3.2-.3.1-.7-.1-.9l-6.1-5.6c-.2-.2-.4-.2-.6-.2-.3,0-.5.2-.6.4Zm-3.5,9.2v3.7c0,.2.1.4.3.6.2.1.4.2.6.1l8.1-1.8c.3-.1.6-.4.6-.7s-.2-.6-.6-.7l-8.1-1.9c-.2,0-.4,0-.6.1s-.3.3-.3.6v0Zm1.6,9.7l1.9,3.2c.1.2.3.3.5.3s.4,0,.6-.2l6.1-5.6c.2-.2.3-.6.1-.9s-.5-.4-.8-.3l-7.9,2.4c-.2.1-.4.2-.5.4-.1.3-.1.5,0,.7Zm6.3,7.6l3.2,1.8c.2.1.4.1.6,0s.4-.2.4-.5l2.4-7.9c.1-.3,0-.7-.3-.8-.3-.2-.7-.1-.9.1l-5.6,6.1c-.2.2-.2.4-.2.6.1.3.2.5.4.6v0Zm9.2,3.4h3.7c.2,0,.4-.1.6-.3.1-.2.2-.4.1-.6l-1.8-8.1c-.1-.3-.4-.6-.7-.6s-.6.2-.7.6l-1.9,8.1c0,.2,0,.4.1.6.2.2.4.3.6.3v0Zm9.7-1.6l3.2-1.9c.2-.1.3-.3.3-.5s0-.4-.2-.6l-5.6-6.1c-.2-.2-.6-.3-.9-.1s-.4.5-.3.8l2.4,7.9c.1.2.2.4.4.5.3.2.5.1.7,0v0Zm7.6-6.2l1.8-3.2c.1-.2.1-.4,0-.6s-.2-.4-.5-.4l-7.9-2.4c-.3-.1-.7,0-.8.3-.2.3-.1.7.1.9l6.1,5.6c.2.2.4.2.6.2.3-.1.5-.2.6-.4v0Zm3.5-9.2v-3.7c0-.2-.1-.4-.3-.6-.2-.1-.4-.2-.6-.1l-8.1,1.8c-.3.1-.6.4-.6.7s.2.6.6.7l8.1,1.9c.2,0,.4,0,.6-.1.2-.2.3-.4.3-.6v0Zm-1.6-9.7l-1.9-3.2c-.1-.2-.3-.3-.5-.3s-.4,0-.6.2l-6.1,5.6c-.2.2-.3.6-.1.9s.5.4.8.3l7.9-2.4c.2-.1.4-.2.5-.4.1-.3.1-.6,0-.7v0Zm-6.3-7.6l-3.2-1.8c-.2-.1-.4-.1-.6,0s-.4.2-.4.5l-2.4,7.9c-.1.3,0,.7.3.8.3.2.7.1.9-.1l5.6-6.1c.2-.2.2-.4.2-.6-.1-.4-.2-.5-.4-.6Z"
        clip-rule="evenodd" fill="#b3b3b3" fill-rule="evenodd"/>
    </g>
  </g>
</svg>
